<svg aria-hidden="true" style="width:0;height:0;position:absolute;overflow:hidden" xmlns="http://www.w3.org/2000/svg"><defs><symbol id="icon-Arrow_white_icon" viewBox="0 0 82 32"><path fill="#fcfcfc" style="fill:var(--color1,#fcfcfc)" d="M81.414 17.414c.362-.362.586-.862.586-1.414s-.224-1.052-.586-1.414L68.686 1.858a2 2 0 1 0-2.829 2.827l.001.001L77.172 16 65.858 27.314a2 2 0 0 0 2.829 2.827l-.001.001 12.728-12.728zM0 18h80v-4H0v4z"/></symbol><symbol id="icon-Arrow_black_icon" viewBox="0 0 82 32"><path d="M81.414 17.414c.362-.362.586-.862.586-1.414s-.224-1.052-.586-1.414L68.686 1.858a2 2 0 1 0-2.829 2.827l.001.001L77.172 16 65.858 27.314a2 2 0 0 0 2.829 2.827l-.001.001 12.728-12.728zM0 18h80v-4H0v4z"/></symbol><symbol id="btn_icon" viewBox="0 0 19 32"><path fill="none" stroke-linejoin="round" stroke-linecap="round" stroke-width="5.333" d="M3.787 3.091 15.2 14.968 3.787 26.848"/></symbol><symbol id="icon-Close_icon" viewBox="0 0 32 32"><path fill="#fff" style="fill:var(--color1,#fff)" d="M28.614 1.13 16 13.744 3.386 1.13a1.597 1.597 0 0 0-2.255 2.257l-.001-.001L13.738 16 1.127 28.611a1.595 1.595 0 0 0 1.747 2.616l-.01.004c.202-.089.375-.211.518-.361l.001-.001 12.618-12.611 12.614 12.614a1.597 1.597 0 0 0 2.255-2.257l.001.001-12.614-12.614L30.871 3.384a1.596 1.596 0 1 0-2.256-2.259v.003z"/></symbol><symbol id="icon-btn_icon_white" viewBox="0 0 19 32"><path fill="none" stroke="#fcfcfc" style="stroke:var(--color1,#fcfcfc)" stroke-linejoin="round" stroke-linecap="round" stroke-width="5.333" d="M3.787 3.091 15.2 14.968 3.787 26.848"/></symbol><symbol id="icon-Burger" viewBox="0 0 50 32"><path fill="none" stroke="#fff" style="stroke:var(--color2,#fff)" stroke-linecap="round" stroke-width="4.571" d="M2.286 2.286H48M2.286 16H48M2.286 29.714H48"/></symbol><symbol id="close_icon" viewBox="0 0 32 32"><path d="M28.614 1.13 16 13.744 3.386 1.13a1.597 1.597 0 0 0-2.255 2.257l-.001-.001L13.738 16 1.127 28.611a1.595 1.595 0 0 0 1.747 2.616l-.01.004c.202-.089.375-.211.518-.361l.001-.001 12.618-12.611 12.614 12.614a1.597 1.597 0 0 0 2.255-2.257l.001.001-12.614-12.614L30.871 3.384a1.596 1.596 0 1 0-2.256-2.259v.003z"/></symbol><symbol id="icon-footer_facebook_icon_black" viewBox="0 0 16 32"><path d="M14.143 15.972h-4.034v14.865H3.997V15.972H1.09v-5.224h2.907V7.367c0-2.418 1.142-6.203 6.166-6.203l4.527.019v5.071h-3.285c-.539 0-1.296.271-1.296 1.424v3.075h4.567l-.534 5.219z"/></symbol><symbol id="icon-footer_facebook_icon_white" viewBox="0 0 16 32"><path fill="#fcfcfc" style="fill:var(--color1,#fcfcfc)" d="M14.266 15.97H10.09v15.39H3.764V15.968H.753V10.56h3.008V7.062C3.761 4.558 4.945.64 10.145.64l4.688.019v5.25h-3.4c-.557 0-1.342.282-1.342 1.475v3.184h4.73l-.554 5.4z"/></symbol><symbol id="icon-footer_github_icon_black" viewBox="0 0 32 32"><path d="M16 0C7.212 0 0 7.212 0 16c0 7.499 5.262 14.312 12.25 16v-5.293c-.692.152-1.33.156-2.034-.052-.946-.279-1.714-.909-2.284-1.869-.364-.613-1.008-1.278-1.68-1.23l-.165-1.868c1.453-.124 2.711.886 3.457 2.14.332.558.713.884 1.203 1.029.473.14.982.072 1.574-.137.149-1.186.692-1.63 1.102-2.255v-.001c-4.167-.622-5.828-2.832-6.488-4.578-.874-2.317-.405-5.212 1.14-7.041.03-.036.084-.129.063-.194-.708-2.139.155-3.909.187-4.097.817.242.95-.243 3.551 1.337l.449.27c.188.112.129.048.317.034A13.544 13.544 0 0 1 16 7.723c1.136.015 2.273.178 3.404.484l.145.015c-.013-.002.04-.009.127-.062 3.248-1.968 3.132-1.324 4.003-1.608.032.188.883 1.987.182 4.099-.095.291 2.816 2.956 1.203 7.235-.659 1.746-2.32 3.957-6.487 4.578v.001c.534.814 1.176 1.247 1.173 2.927V32C26.738 30.312 32 23.499 32 16c0-8.788-7.212-16-16-16z"/></symbol><symbol id="icon-footer_github_icon_white" viewBox="0 0 32 32"><path fill="#fcfcfc" style="fill:var(--color1,#fcfcfc)" d="M16 .941C7.728.941.941 7.728.941 16c0 7.058 4.952 13.469 11.53 15.059v-4.982c-.653.142-1.251.147-1.915-.048-.89-.264-1.613-.856-2.15-1.76-.341-.578-.947-1.203-1.581-1.157l-.155-1.76c1.368-.115 2.552.835 3.254 2.016.312.523.672.832 1.131.968.446.131.925.067 1.482-.128.141-1.117.651-1.536 1.038-2.123-3.923-.586-5.486-2.667-6.107-4.309-.821-2.181-.381-4.906 1.074-6.627.029-.034.08-.122.059-.182-.666-2.014.146-3.68.176-3.856.768.227.894-.229 3.341 1.258l.424.254c.176.106.122.045.298.032.944-.267 2.03-.429 3.151-.446h.01c1.147.018 2.247.183 3.294.478l-.09-.022.136.013c-.011 0 .038-.008.12-.058 3.058-1.851 2.947-1.246 3.768-1.512.029.176.832 1.869.171 3.856-.09.275 2.651 2.784 1.133 6.81-.621 1.643-2.184 3.725-6.106 4.31.502.766 1.106 1.174 1.104 2.755v6.219c6.576-1.59 11.528-8 11.528-15.059 0-8.27-6.786-15.058-15.058-15.058z"/></symbol><symbol id="icon-footer_telegram_icon_black" viewBox="0 0 44 32"><path d="m17.346 21.048-.675 8.86c.966 0 1.384-.387 1.885-.852l4.527-4.038 9.381 6.412c1.72.895 2.933.424 3.397-1.477l6.158-26.929.002-.002c.546-2.374-.92-3.302-2.596-2.72L3.231 13.235c-2.47.895-2.433 2.18-.42 2.762l9.253 2.686L33.558 6.131c1.011-.625 1.931-.279 1.175.346l-17.386 14.57z"/></symbol><symbol id="icon-footer_telegram_icon_white" viewBox="0 0 40 32"><path fill="#fff" style="fill:var(--color2,#fff)" d="m16.204 20.75-.634 8.34c.908 0 1.3-.366 1.774-.802l4.26-3.8 8.83 6.034c1.62.84 2.76.398 3.196-1.39l5.796-25.346c.516-2.236-.864-3.108-2.44-2.56L2.92 13.398c-2.326.84-2.29 2.052-.396 2.6l8.71 2.528L31.46 6.712c.952-.588 1.82-.264 1.106.326L16.202 20.75z"/></symbol></defs></svg>